# xmcd
#
# Track frame offsets:
# 150
# 13606
# 28598
# 42524
# 60735
# 73909
# 91932
# 103982
# 120044
# 131843
# 151153
# 162697
# 180799
# 193317
#
# Disc length: 2781 seconds
#
# Revision: 0
# Processed by: cddbd v1.5.1PL0 Copyright (c) Steve Scherf et al.
# Submitted via: Axialis_AX_CDPlayer 2.6
#
DISCID=bd0adb0e
DTITLE=Dixie Chicks - Little old cowgirl
DYEAR=1900
DGENRE=
TTITLE0=Little old cowgirl
TTITLE1=A road is just a road
TTITLE2=She'll find better things to do
TTITLE3=Irish medley
TTITLE4=You send me
TTITLE5=Just a bit like me
TTITLE6=A heart can that
TTITLE7=Past the point of rescue
TTITLE8=#Beating around the bsh
TTITLE9=Two of a kind
TTITLE10=Standing by the bedside
TTITLE11=Aunt Mattie's quilt
TTITLE12=I just love him so
TTITLE13=Pink toenails
EXTD=
EXTT0=
EXTT1=
EXTT2=
EXTT3=
EXTT4=
EXTT5=
EXTT6=
EXTT7=
EXTT8=
EXTT9=
EXTT10=
EXTT11=
EXTT12=
EXTT13=
PLAYORDER=
